<svg width="43" height="43" viewBox="0 0 43 43" fill="none" xmlns="http://www.w3.org/2000/svg">
<circle cx="21.8223" cy="21.9644" r="21" fill="#0B2C25"/>
<path fill-rule="evenodd" clip-rule="evenodd" d="M14.1814 15.0249C14.1834 15.0249 14.1334 15.0769 14.0704 15.1389C13.8284 15.3739 13.3274 15.8629 13.3224 16.8859C13.3144 18.3169 14.2554 20.9739 18.7864 25.5039C23.2964 30.0119 25.9494 30.9639 27.3834 30.9639H27.4044C28.4274 30.9589 28.9154 30.4569 29.1514 30.2159C29.2234 30.1419 29.2814 30.0879 29.3224 30.0539C30.3184 29.0519 30.8284 28.3059 30.8235 27.8279C30.8164 27.3399 30.2094 26.7629 29.3704 25.9649C29.1034 25.7109 28.8134 25.4349 28.5074 25.1289C27.7144 24.3379 27.3214 24.4729 26.4574 24.7769C25.2624 25.1959 23.6224 25.7659 21.0744 23.2169C18.5224 20.6669 19.0934 19.0289 19.5114 17.8339C19.8134 16.9699 19.9514 16.5759 19.1574 15.7819C18.8464 15.4719 18.5674 15.1779 18.3104 14.9079C17.5174 14.0739 16.9454 13.4709 16.4604 13.4639H16.4524C15.9734 13.4639 15.2294 13.9759 14.1764 15.0289C14.1794 15.0259 14.1804 15.0249 14.1814 15.0249ZM27.3844 32.4639C24.8924 32.4639 21.6434 30.4799 17.7264 26.5649C13.7944 22.6339 11.8074 19.3749 11.8223 16.8779C11.8314 15.2279 12.6964 14.3829 13.0214 14.0659C13.0384 14.0449 13.0964 13.9879 13.1164 13.9679C14.5504 12.5329 15.5174 11.9529 16.4794 11.9638C17.5964 11.9789 18.3914 12.8149 19.3974 13.8739C19.6464 14.1359 19.9164 14.4209 20.2174 14.7209C21.6774 16.1809 21.2614 17.3719 20.9274 18.3279C20.5634 19.3709 20.2484 20.2709 22.1344 22.1569C24.0224 24.0429 24.9224 23.7279 25.9614 23.3609C26.9184 23.0269 28.1064 22.6089 29.5684 24.0689C29.8644 24.3649 30.1454 24.6319 30.4044 24.8789C31.4684 25.8899 32.3084 26.6889 32.3226 27.8089C32.3344 28.7639 31.7544 29.7369 30.3224 31.1699L29.6884 30.7399L30.2244 31.2639C29.9074 31.5889 29.0634 32.4549 27.4124 32.4639H27.3844Z" fill="#C7D6D6"/>
</svg>
