<svg width="25" height="25" viewBox="0 0 25 25" fill="none" xmlns="http://www.w3.org/2000/svg">
<path fill-rule="evenodd" clip-rule="evenodd" d="M19.4549 9.23093C19.8679 9.26493 20.1759 9.62593 20.1429 10.0389C20.1369 10.1069 19.5949 16.8179 19.2829 19.6329C19.0889 21.3799 17.9349 22.4429 16.1929 22.4749C14.8599 22.4979 13.5739 22.5109 12.3169 22.5109C10.9619 22.5109 9.64091 22.4959 8.33391 22.4689C6.66191 22.4359 5.50491 21.3519 5.31591 19.6399C5.00091 16.7999 4.46191 10.1059 4.45691 10.0389C4.42291 9.62593 4.73091 9.26393 5.14391 9.23093C5.55091 9.21993 5.56103 9.23093 6.08301 9.23093C6.54395 9.23093 6.38845 9.23093 6.59863 9.23093H6.79004C7.0791 9.23093 6.96211 9.23093 7.16113 9.23093C8.30018 9.23093 7.41825 9.23093 8.39063 9.23093C10.9153 9.23093 13.286 9.23093 16.1916 9.23093C17.2002 9.23093 16.6317 9.23093 17.6592 9.23093C18.0859 9.23093 18.083 9.23093 18.5957 9.23093C19.1729 9.23093 19.0459 9.21793 19.4549 9.23093ZM14.4157 2.51123C15.3337 2.51123 16.1407 3.13023 16.3777 4.01723L16.6317 5.27823C16.7138 5.6916 17.0766 5.99349 17.4966 6.00012L20.7783 6.00023C21.1923 6.00023 21.5283 6.33623 21.5283 6.75023C21.5283 7.16423 21.1923 7.50023 20.7783 7.50023L17.5259 7.50008C17.5208 7.50018 17.5158 7.50023 17.5107 7.50023L17.4863 7.49923L7.11193 7.50011C7.10387 7.50019 7.09579 7.50023 7.08771 7.50023L7.07231 7.49923L3.82031 7.50023C3.40631 7.50023 3.07031 7.16423 3.07031 6.75023C3.07031 6.33623 3.40631 6.00023 3.82031 6.00023L7.10131 5.99923L7.20233 5.99284C7.57862 5.94402 7.89135 5.65823 7.96771 5.27823L8.21071 4.06223C8.45771 3.13023 9.26471 2.51123 10.1827 2.51123H14.4157ZM14.4157 4.01123H10.1827C9.94271 4.01123 9.73171 4.17223 9.67071 4.40323L9.43771 5.57323C9.4081 5.72143 9.36498 5.86424 9.3098 6.0005H15.2889C15.2337 5.86424 15.1905 5.72143 15.1607 5.57323L14.9177 4.35723C14.8667 4.17223 14.6557 4.01123 14.4157 4.01123Z" fill="#556969"/>
</svg>
