<svg width="22" height="26" viewBox="0 0 22 26" fill="#000" xmlns="http://www.w3.org/2000/svg">
<path d="M5.52693 1.40516C8.80421 -0.499088 12.8325 -0.465805 16.0791 1.49234C19.2937 3.49037 21.2474 7.05626 21.2294 10.8922C21.1544 14.7029 19.0594 18.285 16.4407 21.0541C14.9292 22.6596 13.2384 24.0792 11.4028 25.2841C11.2137 25.3934 11.0066 25.4666 10.7917 25.5C10.5849 25.4912 10.3835 25.4301 10.2056 25.3222C7.40313 23.5119 4.94449 21.2011 2.94799 18.5009C1.27737 16.247 0.328244 13.524 0.229492 10.7016L0.236972 10.291C0.373375 6.60697 2.36669 3.24139 5.52693 1.40516ZM12.0904 7.55216C10.7581 6.98585 9.22206 7.29352 8.19947 8.33152C7.17688 9.36952 6.86945 10.9331 7.42074 12.2922C7.97202 13.6513 9.27326 14.5378 10.7169 14.5378C11.6626 14.5446 12.5718 14.1657 13.2417 13.4857C13.9116 12.8057 14.2867 11.881 14.2834 10.9176C14.2884 9.44705 13.4227 8.11847 12.0904 7.55216Z" fill="#000"/>
</svg>
